<?xml version="1.0" encoding="iso-8859-1"?>
<!-- Uploaded to: SVG Repo, www.svgrepo.com, Generator: SVG Repo Mixer Tools -->
<svg height="800px" width="800px" version="1.1" id="Capa_1" xmlns="http://www.w3.org/2000/svg" xmlns:xlink="http://www.w3.org/1999/xlink" 
	 viewBox="0 0 321.557 321.557" xml:space="preserve">
<g>
	<path style="fill:#010002;" d="M306.888,321.557c8.104,0,14.669-6.57,14.669-14.669V14.669c0-8.104-6.57-14.669-14.669-14.669
		H14.669C6.565,0,0,6.57,0,14.669v292.219c0,8.104,6.57,14.669,14.669,14.669H306.888z M27.195,27.195h267.167v267.167H27.195
		V27.195z"/>
	<path style="fill:#010002;" d="M162.291,180.452c12.151,0,22.006-9.85,22.006-22.006c0-8.175-4.509-15.224-11.128-19.02V55.402
		c0-6.005-4.873-10.878-10.878-10.878c-6.005,0-10.878,4.873-10.878,10.878v84.023c-3.394,1.947-6.195,4.743-8.142,8.142H94.259
		c-6.005,0-10.878,4.873-10.878,10.878s4.873,10.878,10.878,10.878h49.011C147.067,175.943,154.116,180.452,162.291,180.452z"/>
	<path style="fill:#010002;" d="M139.202,275.641c-0.19-0.147-0.337-0.294-0.43-0.419c-0.011-0.027-0.332-0.593-0.441-2.633
		c-0.071-2.627-0.109-4.873-0.109-6.717v-26.951c0-8.159-3.035-13.837-9.013-16.872c-5.385-2.741-11.591-4.128-18.449-4.128
		c-10.753,0-18.536,2.964-23.154,8.817c-1.545,1.985-2.741,4.286-3.557,6.826c-0.74,2.284-0.37,4.607,1.039,6.543
		c1.681,2.312,4.574,3.688,7.745,3.688c4.444,0,9.475-1.42,10.688-4.596c0.272-0.702,0.609-1.3,0.984-1.751
		c0.979-1.153,2.91-1.735,5.738-1.735c3.497,0,5.281,0.566,6.162,1.039c0.364,0.196,1.12,0.604,1.12,2.6
		c0,0.435,0,1.164-1.681,1.876c-0.674,0.299-2.159,0.734-5.379,1.142l-5.276,0.647c-6.385,0.805-11.156,2.154-14.598,4.112
		c-6.483,3.742-9.774,9.818-9.774,18.041c0,6.369,2.072,11.406,6.162,14.963c3.981,3.47,9.045,5.227,15.044,5.227
		c4.645,0,8.893-1.082,12.64-3.225c1.43-0.832,2.807-1.762,4.079-2.768c0.049,0.185,0.103,0.364,0.152,0.555
		c0.288,0.984,1.055,3.601,11.536,3.601c9.312,0,11.079-1.354,11.079-3.851C141.519,277.572,139.74,276.049,139.202,275.641z
		 M117.484,257.888c-0.092,4.194-1.175,7.033-3.225,8.441c-2.393,1.637-4.922,2.431-7.74,2.431c-1.501,0-2.714-0.381-3.709-1.169
		c-0.789-0.62-1.186-1.817-1.186-3.552c0-1.969,0.702-3.263,2.268-4.166c0.789-0.457,2.502-1.137,6.195-1.784l3.497-0.647
		c1.561-0.288,2.845-0.593,3.894-0.936v1.382H117.484z"/>
	<path style="fill:#010002;" d="M231.198,225.825c-2.339-2.866-5.009-4.917-7.941-6.086c-6.951-2.79-14.49-2.04-20.527,1.044
		c-1.8,0.974-3.459,2.246-4.933,3.78c-0.832,0.865-1.251,0.963-1.131,0.789c-0.99-1.392-2.154-2.649-3.628-3.851
		c-3.225-2.301-7.419-3.47-12.466-3.47c-5.336,0-9.796,1.349-13.25,4.009c-0.593,0.457-1.191,0.995-1.789,1.615
		c-1.507-2.529-5.058-4.221-9.41-4.221c-5.619,0-10.187,5.347-10.187,11.917v40.244c0,6.57,4.716,11.917,10.508,11.917
		s10.508-5.347,10.508-11.917v-26.162c0-3.427,0.511-5.145,0.919-5.95c0.37-0.696,1.496-2.817,6.44-2.817
		c3.465,0,4.558,1.43,5.124,2.66c0.381,0.843,0.838,2.649,0.838,6.478v25.781c0,6.57,4.688,11.917,10.454,11.917
		s10.454-5.347,10.454-11.917v-25.781c0-2.23,0.337-4.128,0.995-5.602c1.175-2.556,3.122-3.699,6.315-3.699
		c3.389,0,4.514,1.387,5.113,2.594c0.528,1.05,0.794,2.491,0.794,4.281v28.212c0,6.57,4.754,11.917,10.59,11.917
		c5.836,0,10.595-5.341,10.617-11.912l0.082-27.837c0-4.019-0.19-7.022-0.587-9.192
		C234.451,231.166,233.135,228.223,231.198,225.825z"/>
</g>
</svg>